<svg width="24" height="24" viewBox="0 0 24 24" fill="none" xmlns="http://www.w3.org/2000/svg">
<mask id="mask0_39_12322" style="mask-type:alpha" maskUnits="userSpaceOnUse" x="0" y="0" width="24" height="24">
<rect width="24" height="24" fill="#D9D9D9"/>
</mask>
<g mask="url(#mask0_39_12322)">
<path d="M12 22C9.44444 22 7.21759 21.1528 5.31944 19.4583C3.4213 17.7639 2.33333 15.6481 2.05556 13.1111H4.33333C4.59259 15.037 5.44907 16.6296 6.90278 17.8889C8.35648 19.1481 10.0556 19.7778 12 19.7778C14.1667 19.7778 16.0046 19.0231 17.5139 17.5139C19.0231 16.0046 19.7778 14.1667 19.7778 12C19.7778 9.83333 19.0231 7.99537 17.5139 6.48611C16.0046 4.97685 14.1667 4.22222 12 4.22222C10.7222 4.22222 9.52778 4.51852 8.41667 5.11111C7.30556 5.7037 6.37037 6.51852 5.61111 7.55556H8.66667V9.77778H2V3.11111H4.22222V5.72222C5.16667 4.53704 6.31944 3.62037 7.68056 2.97222C9.04167 2.32407 10.4815 2 12 2C13.3889 2 14.6898 2.26389 15.9028 2.79167C17.1157 3.31944 18.1713 4.03241 19.0694 4.93056C19.9676 5.8287 20.6806 6.88426 21.2083 8.09722C21.7361 9.31019 22 10.6111 22 12C22 13.3889 21.7361 14.6898 21.2083 15.9028C20.6806 17.1157 19.9676 18.1713 19.0694 19.0694C18.1713 19.9676 17.1157 20.6806 15.9028 21.2083C14.6898 21.7361 13.3889 22 12 22ZM15.1111 16.6667L10.8889 12.4444V6.44444H13.1111V11.5556L16.6667 15.1111L15.1111 16.6667Z" fill="#3B37FF"/>
</g>
</svg>
