<svg width="150" height="32" viewBox="0 0 150 32" fill="none" xmlns="http://www.w3.org/2000/svg">
<path d="M49.9071 25.4251C48.1173 25.4251 46.6054 25.3726 45.3543 25.2851C44.1031 25.1975 43.0779 25.0224 42.2785 24.7773C41.4792 24.5321 40.8536 24.2169 40.4192 23.8142C39.9847 23.4115 39.6719 22.9036 39.5155 22.2908C39.3591 21.6779 39.2549 20.96 39.2549 20.1195V19.7343L42.4349 19.6642V20.2246C42.4349 20.7148 42.5218 21.1176 42.6956 21.4328C42.8693 21.748 43.2169 21.9931 43.7382 22.1682C44.2595 22.3433 45.0067 22.4484 45.9799 22.5184C46.953 22.5709 48.2389 22.606 49.855 22.606C51.2625 22.606 52.392 22.571 53.2262 22.5009C54.0603 22.4309 54.6858 22.3083 55.1029 22.1332C55.5199 21.9581 55.798 21.7305 55.937 21.4503C56.0586 21.1701 56.1281 20.8199 56.1281 20.4172V20.3997C56.1281 19.9969 56.0586 19.6467 55.9022 19.384C55.7458 19.1214 55.4331 18.8762 54.9465 18.6661C54.4599 18.456 53.7301 18.2809 52.7743 18.1408C51.8186 18.0007 50.5501 17.8781 48.9514 17.7556C46.8835 17.6155 45.2326 17.4229 43.9641 17.1777C42.6956 16.9326 41.7398 16.6349 41.0621 16.2497C40.4018 15.8645 39.95 15.3566 39.7241 14.7438C39.4982 14.1309 39.3765 13.3605 39.3765 12.4674C39.3765 11.5744 39.4982 10.8039 39.7241 10.156C39.9674 9.50816 40.4018 8.98285 41.0795 8.5626C41.7398 8.14234 42.6956 7.84467 43.912 7.65206C45.1284 7.45944 46.7445 7.37189 48.7081 7.37189C50.3937 7.37189 51.8186 7.42442 52.9829 7.54699C54.1471 7.66956 55.0855 7.84467 55.8154 8.08982C56.5452 8.33496 57.1013 8.66766 57.5009 9.0704C57.9006 9.47314 58.1787 9.94592 58.3177 10.5063C58.4567 11.0666 58.5436 11.697 58.5436 12.4149V12.7651L55.3635 12.8351V12.3449C55.3635 11.9421 55.2767 11.5919 55.1203 11.3117C54.9639 11.0316 54.6511 10.8039 54.1993 10.6288C53.7475 10.4537 53.0698 10.3312 52.1835 10.2611C51.2973 10.1911 50.1504 10.156 48.7255 10.156C47.3874 10.156 46.3274 10.1911 45.5454 10.2786C44.7461 10.3662 44.1553 10.4887 43.7382 10.6463C43.3211 10.8039 43.0431 11.0141 42.9041 11.2767C42.7651 11.5394 42.6782 11.8546 42.6782 12.2398C42.6782 12.6425 42.7477 12.9927 42.8867 13.2729C43.0257 13.5531 43.3211 13.7982 43.7903 13.9908C44.2595 14.1834 44.972 14.341 45.9103 14.4636C46.8661 14.5862 48.152 14.7088 49.7681 14.8138C51.8534 14.9539 53.5389 15.164 54.8075 15.4267C56.076 15.6893 57.0318 16.0396 57.7095 16.4773C58.3698 16.9151 58.8216 17.4404 59.0475 18.0708C59.2734 18.7011 59.3951 19.4541 59.3951 20.3296C59.3951 21.0651 59.3256 21.7129 59.1865 22.2733C59.0475 22.8336 58.7869 23.3239 58.4046 23.7266C58.0223 24.1294 57.4662 24.4621 56.7711 24.7247C56.076 24.9874 55.1724 25.18 54.0429 25.2851C52.9307 25.3551 51.5406 25.4251 49.9071 25.4251Z" fill="black"/>
<path d="M72.411 25.4251C70.291 25.4251 68.5359 25.2851 67.1457 25.0049C65.7555 24.7247 64.6608 24.2519 63.8788 23.5865C63.0795 22.9211 62.5408 22.0281 62.228 20.925C61.9152 19.8218 61.7588 18.4385 61.7588 16.775V15.987C61.7588 14.3235 61.9152 12.9227 62.228 11.8195C62.5408 10.7164 63.0795 9.82334 63.8788 9.15794C64.6782 8.49255 65.7729 8.01976 67.1457 7.75711C68.5359 7.47694 70.291 7.33685 72.411 7.33685C74.5484 7.33685 76.3209 7.47694 77.6937 7.75711C79.0839 8.03727 80.1612 8.51006 80.9606 9.15794C81.7426 9.82334 82.2986 10.6989 82.6114 11.8195C82.9242 12.9227 83.0806 14.3235 83.0806 15.987V16.775C83.0806 18.4385 82.9242 19.8218 82.6114 20.925C82.2986 22.0281 81.7426 22.9211 80.9606 23.5865C80.1786 24.2519 79.0839 24.7247 77.6937 25.0049C76.3035 25.2851 74.5484 25.4251 72.411 25.4251ZM72.411 22.4484C73.9923 22.4484 75.2609 22.3608 76.2166 22.1857C77.1897 22.0106 77.9196 21.6954 78.4409 21.2752C78.9622 20.8374 79.3098 20.2421 79.5009 19.4541C79.6921 18.6836 79.7789 17.6855 79.7789 16.4948V16.2497C79.7789 15.0415 79.6921 14.0609 79.5009 13.2904C79.3098 12.5375 78.9622 11.9246 78.4409 11.4868C77.9196 11.0491 77.1724 10.7339 76.2166 10.5588C75.2435 10.3837 73.975 10.2961 72.411 10.2961C70.8471 10.2961 69.5959 10.4012 68.6228 10.5938C67.6497 10.7864 66.9024 11.1016 66.3811 11.5569C65.8598 11.9946 65.5123 12.6075 65.3385 13.378C65.1647 14.1484 65.0778 15.1115 65.0778 16.2672V16.5123C65.0778 17.703 65.1647 18.6836 65.3385 19.4716C65.5123 20.242 65.8598 20.8549 66.3811 21.2927C66.9024 21.7304 67.6497 22.0281 68.6228 22.2032C69.5959 22.3608 70.8644 22.4484 72.411 22.4484ZM84.6098 25.3901L84.5924 25.4076L82.4029 24.322C82.0554 24.1644 81.7252 24.0068 81.395 23.8492C81.0649 23.6916 80.7694 23.534 80.5088 23.3939C80.2481 23.2538 80.0222 23.1313 79.8311 23.0262L79.2402 21.9406L75.0002 19.9794V16.81L75.0176 16.7925L77.0855 17.7731C77.6416 18.0357 78.215 18.3159 78.8058 18.6136C79.414 18.9113 80.0396 19.244 80.7347 19.6117L81.3255 20.5748L84.6098 22.0631V25.3901Z" fill="black"/>
<path d="M103.602 25.0749H86.4336C86.451 24.6897 86.451 24.3045 86.451 23.9367C86.451 23.569 86.451 23.1663 86.451 22.7285C86.451 22.2908 86.451 21.7655 86.451 21.1876V10.8389C86.451 10.1911 86.451 9.61321 86.451 9.12292C86.451 8.63263 86.451 8.14234 86.4336 7.66956H89.7179C89.7005 8.14234 89.7005 8.63263 89.7005 9.12292C89.7005 9.61321 89.7005 10.1911 89.7005 10.8565V23.6041L88.2234 22.1157H95.296C95.9389 22.1157 96.6514 22.1157 97.3986 22.1157C98.1458 22.1157 98.9104 22.1157 99.6924 22.1157C100.457 22.1157 101.187 22.1157 101.865 22.0982C102.542 22.0806 103.133 22.0806 103.62 22.0806V25.0749H103.602Z" fill="black"/>
<path d="M113.142 7.66956H118.929C119.19 8.26491 119.537 9.01786 119.972 9.94591C120.406 10.874 120.893 11.9071 121.414 13.0277C121.935 14.1484 122.474 15.2866 123.013 16.4773C123.569 17.6505 124.107 18.7887 124.629 19.8918C125.15 20.995 125.637 21.9931 126.054 22.9036C126.471 23.7967 126.818 24.5321 127.096 25.0924H123.447L119.728 16.8625C119.259 15.7594 118.773 14.6912 118.286 13.6406C117.8 12.59 117.365 11.5919 116.965 10.6638C116.566 9.73578 116.236 8.93031 115.958 8.26491L117.886 10.7339H113.89L115.853 8.26491C115.575 8.9128 115.228 9.70077 114.828 10.6288C114.411 11.5569 113.977 12.5375 113.507 13.6056C113.038 14.6737 112.552 15.7244 112.065 16.7925L108.173 25.1099H104.767C105.045 24.5496 105.392 23.8317 105.844 22.9211C106.278 22.0281 106.765 21.03 107.286 19.9093C107.808 18.8062 108.364 17.668 108.937 16.4948C109.511 15.3216 110.049 14.1659 110.588 13.0453C111.127 11.9246 111.613 10.909 112.048 9.96342C112.482 9.01786 112.847 8.26491 113.142 7.66956ZM109.007 21.5728V18.8062H123.186V21.5728H109.007Z" fill="black"/>
<path d="M129.582 21.2051V10.8565C129.582 10.2261 129.582 9.66574 129.582 9.21047C129.582 8.73769 129.582 8.22989 129.564 7.66956H139.4C141.52 7.66956 143.275 7.80964 144.648 8.08981C146.021 8.36997 147.098 8.82524 147.88 9.47313C148.662 10.121 149.201 10.9965 149.531 12.0822C149.844 13.1853 150 14.5336 150 16.1796V16.5649C150 17.8781 149.896 18.9988 149.705 19.9619C149.513 20.925 149.183 21.7304 148.714 22.3958C148.245 23.0612 147.602 23.5865 146.785 23.9718C145.969 24.357 144.961 24.6372 143.762 24.8123C142.545 24.9874 141.103 25.0749 139.4 25.0749H129.564C129.582 24.427 129.582 23.8142 129.582 23.2538C129.582 22.6935 129.582 22.0106 129.582 21.2051ZM132.814 23.0962L132.032 22.1857H139.383C140.929 22.1857 142.18 22.0982 143.136 21.923C144.109 21.7479 144.839 21.4503 145.343 21.03C145.847 20.6098 146.194 20.0319 146.386 19.2965C146.577 18.561 146.664 17.633 146.664 16.4948V16.2497C146.664 15.129 146.577 14.1834 146.386 13.448C146.194 12.7126 145.847 12.1347 145.343 11.7145C144.839 11.2942 144.092 10.9965 143.136 10.8214C142.18 10.6463 140.929 10.5588 139.365 10.5588H132.015L132.797 9.64823V23.0962H132.814Z" fill="black"/>
<path d="M28.1858 31.7114H3.26691C1.45968 31.7114 0 30.2405 0 28.4194V3.29197C0 1.47088 1.45968 0 3.26691 0H28.1858C29.993 0 31.4527 1.47088 31.4527 3.29197V28.4019C31.4527 30.2405 29.993 31.7114 28.1858 31.7114Z" fill="#3B37FF"/>
<path d="M19.7411 14.6212C19.1329 14.7438 18.4899 14.8488 17.8122 14.9189C17.1345 14.9889 16.4394 15.0239 15.727 15.0239C15.0145 15.0239 14.302 14.9889 13.6069 14.9189C12.9119 14.8488 12.2689 14.7438 11.6607 14.6212C11.0525 14.4986 10.479 14.3235 9.94035 14.1484C9.40166 13.9558 8.93248 13.7457 8.49805 13.5005V16.6174C8.93248 16.8625 9.40166 17.0726 9.94035 17.2653C10.479 17.4579 11.0525 17.6155 11.6607 17.738C12.2689 17.8606 12.9119 17.9657 13.6069 18.0357C14.302 18.1058 14.9971 18.1408 15.727 18.1408C16.4568 18.1408 17.1519 18.1058 17.8122 18.0357C18.4899 17.9657 19.1155 17.8606 19.7411 17.738C20.3493 17.6155 20.9227 17.4404 21.4614 17.2653C22.0001 17.0726 22.5041 16.8625 22.9385 16.6174V13.5005C22.4867 13.7457 22.0001 13.9558 21.4614 14.1484C20.9401 14.341 20.3667 14.4986 19.7411 14.6212Z" fill="#625FFF"/>
<path d="M19.7411 19.8218C19.1329 19.9444 18.4899 20.0494 17.8122 20.1195C17.1345 20.1895 16.4394 20.2246 15.727 20.2246C15.0145 20.2246 14.302 20.1895 13.6069 20.1195C12.9119 20.0494 12.2689 19.9444 11.6607 19.8218C11.0525 19.6992 10.479 19.5241 9.94035 19.349C9.40166 19.1564 8.93248 18.9463 8.49805 18.7011V21.2752C8.58493 21.5378 8.86297 21.783 9.31478 22.0281C9.76658 22.2733 10.34 22.4834 11.0351 22.6935C11.7302 22.8861 12.4774 23.0612 13.3115 23.1663C14.1456 23.2714 14.945 23.3414 15.727 23.3414C16.5089 23.3414 17.3257 23.2889 18.1424 23.1663C18.9591 23.0437 19.7063 22.8861 20.4014 22.6935C21.0965 22.5009 21.67 22.2733 22.1218 22.0106C22.591 21.7655 22.869 21.5028 22.9385 21.2402V18.7011C22.4867 18.9463 22.0001 19.1564 21.4614 19.349C20.9401 19.5241 20.3667 19.6817 19.7411 19.8218Z" fill="#3B37FF"/>
<path d="M20.6266 9.47313C19.0801 9.01786 17.5509 8.79022 16.0043 8.79022C14.4404 8.79022 12.9112 9.01786 11.3994 9.45562C9.88754 9.89338 9.01867 10.3837 8.77539 10.8915C9.01867 11.4168 9.88754 11.8896 11.3994 12.3273C12.9112 12.7651 14.4404 12.9752 16.0043 12.9752C17.5335 12.9752 19.0801 12.7476 20.6266 12.3098C22.1732 11.8721 23.0421 11.3993 23.2332 10.8915C23.0247 10.3837 22.1558 9.91089 20.6266 9.47313Z" fill="#8987FF"/>
<path d="M22.2951 7.93221C20.4879 7.12673 18.2983 6.70648 15.7265 6.70648C13.1547 6.70648 10.9825 7.10922 9.15791 7.93221C7.35068 8.73769 6.42969 9.71828 6.42969 10.874V21.2752C6.42969 22.4309 7.3333 23.4114 9.12315 24.2169C10.913 25.0224 13.1199 25.4251 15.7091 25.4251C18.2983 25.4251 20.5052 25.0224 22.2951 24.2169C24.0849 23.4114 24.9885 22.4309 24.9885 21.2752V10.874C25.0233 9.71828 24.1197 8.73769 22.2951 7.93221ZM22.9554 21.2401C22.8685 21.5028 22.5905 21.7479 22.1387 22.0106C21.6695 22.2557 21.096 22.4834 20.4183 22.6935C19.7406 22.9036 18.976 23.0612 18.1593 23.1663C17.3426 23.2889 16.5432 23.3414 15.7439 23.3414C14.9445 23.3414 14.1452 23.2889 13.3284 23.1663C12.5117 23.0437 11.7471 22.8861 11.052 22.6935C10.3569 22.5009 9.80087 22.2733 9.33168 22.0281C8.87987 21.783 8.60184 21.5378 8.51495 21.2752V18.7011C8.94938 18.9463 9.41857 19.1564 9.95727 19.349C10.496 19.5416 11.0694 19.6992 11.6776 19.8218C12.2858 19.9444 12.9288 20.0494 13.6239 20.1195C14.3189 20.1895 15.014 20.2245 15.7439 20.2245C16.4737 20.2245 17.1688 20.1895 17.8291 20.1195C18.5068 20.0494 19.1324 19.9444 19.758 19.8218C20.3662 19.6992 20.9397 19.5241 21.4783 19.349C22.017 19.1564 22.521 18.9463 22.9554 18.7011V21.2401ZM22.9554 16.6174C22.5036 16.8625 22.017 17.0727 21.4783 17.2653C20.9397 17.4579 20.3662 17.6155 19.758 17.7381C19.1498 17.8606 18.5068 17.9657 17.8291 18.0357C17.1514 18.1058 16.4563 18.1408 15.7439 18.1408C15.0314 18.1408 14.3189 18.1058 13.6239 18.0357C12.9288 17.9657 12.2858 17.8606 11.6776 17.7381C11.0694 17.6155 10.496 17.4404 9.95727 17.2653C9.41857 17.0727 8.94938 16.8625 8.51495 16.6174V13.5005C8.94938 13.7457 9.41857 13.9558 9.95727 14.1484C10.496 14.341 11.0694 14.4986 11.6776 14.6212C12.2858 14.7438 12.9288 14.8488 13.6239 14.9189C14.3189 14.9889 15.014 15.0239 15.7439 15.0239C16.4737 15.0239 17.1688 14.9889 17.8291 14.9189C18.5068 14.8488 19.1324 14.7438 19.758 14.6212C20.3662 14.4986 20.9397 14.3235 21.4783 14.1484C22.017 13.9558 22.521 13.7457 22.9554 13.5005V16.6174ZM20.6095 12.3098C19.0629 12.7476 17.5163 12.9752 15.9871 12.9752C14.4232 12.9752 12.894 12.7651 11.3822 12.3273C9.87037 11.8896 9.00152 11.4168 8.75824 10.8915C9.00152 10.3662 9.87037 9.89338 11.3822 9.45562C12.894 9.01786 14.4232 8.79022 15.9871 8.79022C17.5337 8.79022 19.0803 9.01786 20.6095 9.47313C22.1561 9.9284 23.0075 10.4012 23.1987 10.909C23.0249 11.3993 22.1561 11.8721 20.6095 12.3098Z" fill="white"/>
</svg>
