<svg width="48" height="48" viewBox="0 0 48 48" fill="none" xmlns="http://www.w3.org/2000/svg">
<g clip-path="url(#clip0_39_13184)">
<rect width="48" height="48" rx="24" fill="#EAEAFF"/>
<mask id="mask0_39_13184" style="mask-type:alpha" maskUnits="userSpaceOnUse" x="13" y="13" width="38" height="38">
<rect x="13" y="13" width="38" height="38" fill="#D9D9D9"/>
</mask>
<g mask="url(#mask0_39_13184)">
<path d="M24 34.6875C21.0115 34.6875 18.4831 34.2273 16.4148 33.307C14.3466 32.3867 13.3125 31.2635 13.3125 29.9375V18.0625C13.3125 16.7562 14.3565 15.638 16.4445 14.7078C18.5326 13.7776 21.051 13.3125 24 13.3125C26.949 13.3125 29.4674 13.7776 31.5555 14.7078C33.6435 15.638 34.6875 16.7562 34.6875 18.0625V29.9375C34.6875 31.2635 33.6534 32.3867 31.5852 33.307C29.5169 34.2273 26.9885 34.6875 24 34.6875ZM24 20.4672C25.7615 20.4672 27.5328 20.2148 29.3141 19.7102C31.0953 19.2055 32.0948 18.6661 32.3125 18.0922C32.0948 17.5182 31.1003 16.974 29.3289 16.4594C27.5576 15.9448 25.7812 15.6875 24 15.6875C22.199 15.6875 20.4326 15.9398 18.7008 16.4445C16.969 16.9492 15.9646 17.4984 15.6875 18.0922C15.9646 18.6859 16.969 19.2302 18.7008 19.725C20.4326 20.2198 22.199 20.4672 24 20.4672ZM24 26.375C24.8313 26.375 25.6328 26.3354 26.4047 26.2563C27.1766 26.1771 27.9138 26.0633 28.6164 25.9148C29.319 25.7664 29.982 25.5833 30.6055 25.3656C31.2289 25.1479 31.7979 24.9005 32.3125 24.6234V21.0609C31.7979 21.338 31.2289 21.5854 30.6055 21.8031C29.982 22.0208 29.319 22.2039 28.6164 22.3523C27.9138 22.5008 27.1766 22.6146 26.4047 22.6938C25.6328 22.7729 24.8313 22.8125 24 22.8125C23.1687 22.8125 22.3573 22.7729 21.5656 22.6938C20.774 22.6146 20.0268 22.5008 19.3242 22.3523C18.6216 22.2039 17.9635 22.0208 17.35 21.8031C16.7365 21.5854 16.1823 21.338 15.6875 21.0609V24.6234C16.1823 24.9005 16.7365 25.1479 17.35 25.3656C17.9635 25.5833 18.6216 25.7664 19.3242 25.9148C20.0268 26.0633 20.774 26.1771 21.5656 26.2563C22.3573 26.3354 23.1687 26.375 24 26.375ZM24 32.3125C24.9104 32.3125 25.8357 32.2432 26.7758 32.1047C27.7159 31.9661 28.5818 31.7831 29.3734 31.5555C30.1651 31.3279 30.8281 31.0706 31.3625 30.7836C31.8969 30.4966 32.2135 30.2047 32.3125 29.9078V26.9984C31.7979 27.2755 31.2289 27.5229 30.6055 27.7406C29.982 27.9583 29.319 28.1414 28.6164 28.2898C27.9138 28.4383 27.1766 28.5521 26.4047 28.6313C25.6328 28.7104 24.8313 28.75 24 28.75C23.1687 28.75 22.3573 28.7104 21.5656 28.6313C20.774 28.5521 20.0268 28.4383 19.3242 28.2898C18.6216 28.1414 17.9635 27.9583 17.35 27.7406C16.7365 27.5229 16.1823 27.2755 15.6875 26.9984V29.9375C15.7865 30.2344 16.0982 30.5214 16.6227 30.7984C17.1471 31.0755 17.8052 31.3279 18.5969 31.5555C19.3885 31.7831 20.2594 31.9661 21.2094 32.1047C22.1594 32.2432 23.0896 32.3125 24 32.3125Z" fill="#3B37FF"/>
</g>
</g>
<defs>
<clipPath id="clip0_39_13184">
<rect width="48" height="48" rx="24" fill="white"/>
</clipPath>
</defs>
</svg>
